<svg xmlns="http://www.w3.org/2000/svg" viewBox="0 0 512 512"><defs><linearGradient id="rb" gradientUnits="userSpaceOnUse" x1="0" y1="0" x2="260" y2="140" spreadMethod="repeat"><stop offset="0.000" stop-color="#ff2e4d"/><stop offset="0.125" stop-color="#ff8a00"/><stop offset="0.250" stop-color="#ffe600"/><stop offset="0.375" stop-color="#2bff5a"/><stop offset="0.500" stop-color="#00e5ff"/><stop offset="0.625" stop-color="#2e5bff"/><stop offset="0.750" stop-color="#a637ff"/><stop offset="0.875" stop-color="#ff2ed1"/><stop offset="1.000" stop-color="#ff2e4d"/></linearGradient></defs><rect width="512" height="512" fill="#fff"/><path d="M-10 70 L-10 56 L6 84 L22 56 L38 84 L54 56 L70 84 L86 56 L102 84 L118 56 L134 84 L150 56 L166 84 L182 56 L198 84 L214 56 L230 84 L246 56 L262 84 L278 56 L294 84 L310 56 L326 84 L342 56 L358 84 L374 56 L390 84 L406 56 L422 84 L438 56 L454 84 L470 56 L486 84 L502 56 L518 84" fill="none" stroke="#ffe600" stroke-width="12" stroke-linejoin="miter"/><path d="M-10 450 L-10 436 L6 464 L22 436 L38 464 L54 436 L70 464 L86 436 L102 464 L118 436 L134 464 L150 436 L166 464 L182 436 L198 464 L214 436 L230 464 L246 436 L262 464 L278 436 L294 464 L310 436 L326 464 L342 436 L358 464 L374 436 L390 464 L406 436 L422 464 L438 436 L454 464 L470 436 L486 464 L502 436 L518 464" fill="none" stroke="#00e5ff" stroke-width="12" stroke-linejoin="miter"/><rect y="150" width="512" height="18" fill="#9aa3ad"/><rect y="200" width="512" height="10" fill="#ff2ed1"/><rect y="330" width="512" height="14" fill="#a3a63a"/><rect y="372" width="512" height="8" fill="#2e5bff"/><g transform="translate(256 256) scale(1) translate(-203.375 90)"><g><path d="M89.75 0L30.75 0Q18.50 0 14.25-1.75Q10-3.50 10-7.50L10-165.25Q10-171.75 15.50-174.62Q21-177.50 34.50-177.50L90.75-177.50Q138.75-177.50 157-158.62Q175.25-139.75 175.25-90Q175.25-40.25 156.25-20.12Q137.25 0 89.75 0M87.75-140.25Q81.75-140.25 79.75-139.25L79.75-38.25L89.25-37.25Q96.75-37.25 100.63-49.25Q104.50-61.25 104.50-90.75Q104.50-120.25 100.50-130.25Q96.50-140.25 87.75-140.25" transform="translate(14.0 18.5) rotate(-4 91.4 -87.5)" fill="#ffe600" stroke="#000" stroke-width="6" stroke-linejoin="round"/><path d="M48.50 0Q42.25 0 30.38 0Q18.50 0 14.25-1.75Q10-3.50 10-7.25L10-165Q10-170.75 25.38-174.12Q40.75-177.50 58.25-177.50Q75.75-177.50 83.25-173Q90.75-168.50 92-163.50L109-97.50L111.25-97.50L127.25-160.50Q129-167.25 143.63-172.37Q158.25-177.50 175.75-177.50Q193.25-177.50 201.63-174.75Q210-172 210-167.75L210-7.25Q210-4 195.75-2Q181.50 0 161 0Q140.50 0 140.50-7.25Q140.50-27 144.75-77.50L142.50-77.50L129.50-12.25Q128.75-8.50 123.38-6.75Q118-5 107.25-5Q96.50-5 94.13-6.50Q91.75-8 91-12.25L77.50-77.50L75.25-77.50Q79.75-26 79.75-7.25Q79.75-0.75 48.50 0" transform="translate(190.8 1.0) rotate(4 110.0 -87.5)" fill="#2bff5a" stroke="#000" stroke-width="6" stroke-linejoin="round"/></g><g stroke-linejoin="round" stroke-linecap="round"><g fill="none" stroke="#000" stroke-width="18"><path d="M89.75 0L30.75 0Q18.50 0 14.25-1.75Q10-3.50 10-7.50L10-165.25Q10-171.75 15.50-174.62Q21-177.50 34.50-177.50L90.75-177.50Q138.75-177.50 157-158.62Q175.25-139.75 175.25-90Q175.25-40.25 156.25-20.12Q137.25 0 89.75 0M87.75-140.25Q81.75-140.25 79.75-139.25L79.75-38.25L89.25-37.25Q96.75-37.25 100.63-49.25Q104.50-61.25 104.50-90.75Q104.50-120.25 100.50-130.25Q96.50-140.25 87.75-140.25" transform="translate(0.0 7.5) rotate(-4 91.4 -87.5)"/><path d="M48.50 0Q42.25 0 30.38 0Q18.50 0 14.25-1.75Q10-3.50 10-7.25L10-165Q10-170.75 25.38-174.12Q40.75-177.50 58.25-177.50Q75.75-177.50 83.25-173Q90.75-168.50 92-163.50L109-97.50L111.25-97.50L127.25-160.50Q129-167.25 143.63-172.37Q158.25-177.50 175.75-177.50Q193.25-177.50 201.63-174.75Q210-172 210-167.75L210-7.25Q210-4 195.75-2Q181.50 0 161 0Q140.50 0 140.50-7.25Q140.50-27 144.75-77.50L142.50-77.50L129.50-12.25Q128.75-8.50 123.38-6.75Q118-5 107.25-5Q96.50-5 94.13-6.50Q91.75-8 91-12.25L77.50-77.50L75.25-77.50Q79.75-26 79.75-7.25Q79.75-0.75 48.50 0" transform="translate(176.8 -10.0) rotate(4 110.0 -87.5)"/></g><g fill="none" stroke="#fff" stroke-width="9" stroke-dasharray="7 9"><path d="M89.75 0L30.75 0Q18.50 0 14.25-1.75Q10-3.50 10-7.50L10-165.25Q10-171.75 15.50-174.62Q21-177.50 34.50-177.50L90.75-177.50Q138.75-177.50 157-158.62Q175.25-139.75 175.25-90Q175.25-40.25 156.25-20.12Q137.25 0 89.75 0M87.75-140.25Q81.75-140.25 79.75-139.25L79.75-38.25L89.25-37.25Q96.75-37.25 100.63-49.25Q104.50-61.25 104.50-90.75Q104.50-120.25 100.50-130.25Q96.50-140.25 87.75-140.25" transform="translate(0.0 7.5) rotate(-4 91.4 -87.5)"/><path d="M48.50 0Q42.25 0 30.38 0Q18.50 0 14.25-1.75Q10-3.50 10-7.25L10-165Q10-170.75 25.38-174.12Q40.75-177.50 58.25-177.50Q75.75-177.50 83.25-173Q90.75-168.50 92-163.50L109-97.50L111.25-97.50L127.25-160.50Q129-167.25 143.63-172.37Q158.25-177.50 175.75-177.50Q193.25-177.50 201.63-174.75Q210-172 210-167.75L210-7.25Q210-4 195.75-2Q181.50 0 161 0Q140.50 0 140.50-7.25Q140.50-27 144.75-77.50L142.50-77.50L129.50-12.25Q128.75-8.50 123.38-6.75Q118-5 107.25-5Q96.50-5 94.13-6.50Q91.75-8 91-12.25L77.50-77.50L75.25-77.50Q79.75-26 79.75-7.25Q79.75-0.75 48.50 0" transform="translate(176.8 -10.0) rotate(4 110.0 -87.5)"/></g><g fill="none" stroke="#000" stroke-width="6"><path d="M89.75 0L30.75 0Q18.50 0 14.25-1.75Q10-3.50 10-7.50L10-165.25Q10-171.75 15.50-174.62Q21-177.50 34.50-177.50L90.75-177.50Q138.75-177.50 157-158.62Q175.25-139.75 175.25-90Q175.25-40.25 156.25-20.12Q137.25 0 89.75 0M87.75-140.25Q81.75-140.25 79.75-139.25L79.75-38.25L89.25-37.25Q96.75-37.25 100.63-49.25Q104.50-61.25 104.50-90.75Q104.50-120.25 100.50-130.25Q96.50-140.25 87.75-140.25" transform="translate(0.0 7.5) rotate(-4 91.4 -87.5)"/><path d="M48.50 0Q42.25 0 30.38 0Q18.50 0 14.25-1.75Q10-3.50 10-7.25L10-165Q10-170.75 25.38-174.12Q40.75-177.50 58.25-177.50Q75.75-177.50 83.25-173Q90.75-168.50 92-163.50L109-97.50L111.25-97.50L127.25-160.50Q129-167.25 143.63-172.37Q158.25-177.50 175.75-177.50Q193.25-177.50 201.63-174.75Q210-172 210-167.75L210-7.25Q210-4 195.75-2Q181.50 0 161 0Q140.50 0 140.50-7.25Q140.50-27 144.75-77.50L142.50-77.50L129.50-12.25Q128.75-8.50 123.38-6.75Q118-5 107.25-5Q96.50-5 94.13-6.50Q91.75-8 91-12.25L77.50-77.50L75.25-77.50Q79.75-26 79.75-7.25Q79.75-0.75 48.50 0" transform="translate(176.8 -10.0) rotate(4 110.0 -87.5)"/></g><g fill="url(#rb)"><path d="M89.75 0L30.75 0Q18.50 0 14.25-1.75Q10-3.50 10-7.50L10-165.25Q10-171.75 15.50-174.62Q21-177.50 34.50-177.50L90.75-177.50Q138.75-177.50 157-158.62Q175.25-139.75 175.25-90Q175.25-40.25 156.25-20.12Q137.25 0 89.75 0M87.75-140.25Q81.75-140.25 79.75-139.25L79.75-38.25L89.25-37.25Q96.75-37.25 100.63-49.25Q104.50-61.25 104.50-90.75Q104.50-120.25 100.50-130.25Q96.50-140.25 87.75-140.25" transform="translate(0.0 7.5) rotate(-4 91.4 -87.5)"/><path d="M48.50 0Q42.25 0 30.38 0Q18.50 0 14.25-1.75Q10-3.50 10-7.25L10-165Q10-170.75 25.38-174.12Q40.75-177.50 58.25-177.50Q75.75-177.50 83.25-173Q90.75-168.50 92-163.50L109-97.50L111.25-97.50L127.25-160.50Q129-167.25 143.63-172.37Q158.25-177.50 175.75-177.50Q193.25-177.50 201.63-174.75Q210-172 210-167.75L210-7.25Q210-4 195.75-2Q181.50 0 161 0Q140.50 0 140.50-7.25Q140.50-27 144.75-77.50L142.50-77.50L129.50-12.25Q128.75-8.50 123.38-6.75Q118-5 107.25-5Q96.50-5 94.13-6.50Q91.75-8 91-12.25L77.50-77.50L75.25-77.50Q79.75-26 79.75-7.25Q79.75-0.75 48.50 0" transform="translate(176.8 -10.0) rotate(4 110.0 -87.5)"/></g></g></g></svg>